<?xml version="1.0" encoding="UTF-8" standalone="no"?>
<svg
   xmlns:dc="http://purl.org/dc/elements/1.1/"
   xmlns:cc="http://creativecommons.org/ns#"
   xmlns:rdf="http://www.w3.org/1999/02/22-rdf-syntax-ns#"
   xmlns:svg="http://www.w3.org/2000/svg"
   xmlns="http://www.w3.org/2000/svg"
   xmlns:sodipodi="http://sodipodi.sourceforge.net/DTD/sodipodi-0.dtd"
   xmlns:inkscape="http://www.inkscape.org/namespaces/inkscape"
   version="1.1"
   id="svg2"
   width="68.711655"
   height="69.642845"
   viewBox="0 0 68.711654 69.642846"
   sodipodi:docname="jiggy.svg"
   inkscape:version="1.0.2 (e86c870879, 2021-01-15)"
   inkscape:export-filename="/home/callan/Documents/dev/Goldeneye Industries/products/Jigsaw/client/src/img/jiggy.png"
   inkscape:export-xdpi="88.13446"
   inkscape:export-ydpi="88.13446">
  <metadata
     id="metadata8">
    <rdf:RDF>
      <cc:Work
         rdf:about="">
        <dc:format>image/svg+xml</dc:format>
        <dc:type
           rdf:resource="http://purl.org/dc/dcmitype/StillImage" />
        <dc:title></dc:title>
      </cc:Work>
    </rdf:RDF>
  </metadata>
  <defs
     id="defs6" />
  <sodipodi:namedview
     pagecolor="#505050"
     bordercolor="#eeeeee"
     borderopacity="1"
     objecttolerance="10"
     gridtolerance="10"
     guidetolerance="10"
     inkscape:pageopacity="0"
     inkscape:pageshadow="2"
     inkscape:window-width="1920"
     inkscape:window-height="948"
     id="namedview4"
     showgrid="false"
     inkscape:zoom="5.6568543"
     inkscape:cx="68.840028"
     inkscape:cy="20.912684"
     inkscape:window-x="0"
     inkscape:window-y="27"
     inkscape:window-maximized="1"
     inkscape:current-layer="g10"
     fit-margin-top="0"
     fit-margin-left="0"
     fit-margin-right="0"
     fit-margin-bottom="0" />
  <g
     inkscape:groupmode="layer"
     inkscape:label="Image"
     id="g10"
     transform="translate(-10.057861,0.1582037)">
    <path
       id="path1050-3"
       style="mix-blend-mode:exclusion;fill:#ffd700;fill-opacity:1;stroke:none;stroke-width:2;stroke-linejoin:round;stroke-miterlimit:3.3;stroke-dasharray:none;stroke-opacity:1"
       d="m 37.787109,0.84179688 c -0.08009,1.1059e-4 -0.16018,0.001413 -0.240234,0.003906 -0.114681,0.002766 -0.229291,0.007976 -0.34375,0.015625 -0.114155,0.008644 -0.228113,0.0197138 -0.341797,0.0332031 -0.11492,0.0138105 -0.22953,0.0300903 -0.34375,0.0488281 -0.113714,0.0184069 -0.227021,0.039245 -0.339844,0.0625 -0.113815,0.022944 -0.227123,0.048341 -0.339843,0.076172 -0.110663,0.028261 -0.220714,0.058867 -0.330079,0.091797 -0.111392,0.03147 -0.222095,0.065332 -0.332031,0.1015625 -0.108286,0.038716 -0.215732,0.079741 -0.322265,0.1230469 -0.108349,0.041301 -0.215796,0.084931 -0.322266,0.1308594 -0.104542,0.046621 -0.208081,0.095461 -0.310547,0.1464843 -0.103346,0.051189 -0.205583,0.1045872 -0.306641,0.1601563 -0.100804,0.054514 -0.200436,0.1111672 -0.298828,0.1699219 -0.09963,0.059721 -0.197961,0.1215838 -0.294922,0.1855468 -0.09512,0.063109 -0.188891,0.1282278 -0.28125,0.1953126 -0.09397,0.068954 -0.186443,0.1399337 -0.277343,0.2128906 -0.09011,0.071666 -0.178667,0.1452502 -0.265625,0.2207031 -0.08628,0.075661 -0.170932,0.1531526 -0.253906,0.2324219 -0.08375,0.078966 -0.165798,0.1597135 -0.246094,0.2421875 -0.08056,0.08229 -0.159358,0.1662931 -0.236328,0.2519531 -0.07672,0.085631 -0.151612,0.1728901 -0.22461,0.2617188 -0.07293,0.090256 -0.143914,0.1820747 -0.21289,0.2753906 -0.06906,0.092303 -0.13613,0.1860748 -0.201172,0.28125 -0.06457,0.095654 -0.127087,0.1926816 -0.1875,0.2910156 -0.06065,0.096406 -0.119261,0.1940837 -0.175782,0.2929688 -0.05688,0.1010239 -0.111582,0.2032611 -0.164062,0.3066406 -0.05234,0.1024326 -0.102478,0.2059718 -0.150391,0.3105468 -0.04853,0.1057593 -0.09476,0.2125551 -0.138671,0.3203126 -0.04331,0.1065334 -0.08433,0.2139798 -0.123047,0.3222656 -0.03746,0.1079654 -0.07262,0.2167138 -0.105469,0.3261718 -0.03427,0.1099818 -0.06617,0.2206842 -0.0957,0.3320313 -0.02906,0.1107478 -0.05576,0.2221011 -0.08008,0.3339844 -0.02462,0.1140899 -0.04676,0.2287002 -0.06641,0.34375 -0.01999,0.112894 -0.03757,0.2262009 -0.05273,0.3398437 -0.01482,0.1143054 -0.02719,0.2289149 -0.03711,0.34375 -0.009,0.1157316 -0.01552,0.2316439 -0.01953,0.3476563 -0.0057,0.1138506 -0.0089,0.2278084 -0.0098,0.3417969 0.001,0.070986 0.003,0.1419559 0.0059,0.2128906 0.0027,0.1159842 0.0079,0.2318965 0.01563,0.3476562 0.0086,0.1148069 0.01969,0.2294165 0.0332,0.34375 -0.02798,0.2428654 -0.07422,0.4818144 -0.07422,0.7324224 v 2.564453 H 13.162109 c -1.146006,0 -2.068359,0.922353 -2.068359,2.068359 -0.01627,5.8247 -0.0312,12.124964 -0.0293,17.255859 h 4.230469 c 0.250609,0 0.489555,0.04429 0.732422,0.07227 0.113698,-0.01284 0.227656,-0.02326 0.341797,-0.03125 0.115746,-0.0084 0.231658,-0.01422 0.347656,-0.01758 0.07094,-0.0022 0.141913,-0.0035 0.212891,-0.0039 0.114598,-0.0011 0.229207,1.65e-4 0.34375,0.0039 0.116055,0.006 0.231967,0.01443 0.347656,0.02539 0.114835,0.0099 0.229445,0.02229 0.34375,0.03711 0.11299,0.01519 0.225645,0.03277 0.33789,0.05273 0.115035,0.019 0.229645,0.04049 0.34375,0.06445 0.112552,0.02494 0.224557,0.05229 0.335938,0.08203 0.110678,0.02891 0.220728,0.06017 0.330078,0.09375 0.110128,0.03346 0.219528,0.06928 0.328125,0.107422 0.108286,0.03872 0.215732,0.07974 0.322266,0.123046 0.107101,0.04394 0.213246,0.09017 0.318359,0.138672 0.104575,0.04791 0.208114,0.09805 0.310547,0.150391 0.10338,0.05248 0.205617,0.10718 0.306641,0.164062 0.09954,0.0565 0.197871,0.115104 0.294921,0.175782 0.09833,0.06041 0.195362,0.122928 0.291016,0.1875 0.09518,0.06504 0.188947,0.132114 0.28125,0.201171 0.09266,0.069 0.183825,0.139979 0.273437,0.212891 0.08883,0.073 0.176088,0.147885 0.261719,0.224609 0.08632,0.07695 0.170973,0.155744 0.253907,0.236329 0.08182,0.08032 0.161912,0.162366 0.240234,0.246093 0.07991,0.08231 0.158049,0.166314 0.234375,0.251954 0.07545,0.08696 0.149037,0.175519 0.220703,0.265624 0.07232,0.09156 0.142651,0.184685 0.210938,0.279297 0.06774,0.09234 0.133512,0.186112 0.197265,0.28125 0.06331,0.09698 0.124518,0.195309 0.183594,0.294922 0.05941,0.09837 0.116716,0.198007 0.171875,0.298828 0.05557,0.101058 0.108967,0.203295 0.160156,0.306641 0.05102,0.102466 0.09986,0.206005 0.146484,0.310547 0.04593,0.10647 0.08956,0.213916 0.13086,0.322265 0.04331,0.106534 0.08433,0.21398 0.123047,0.322266 0.03623,0.109936 0.07009,0.220639 0.101562,0.332031 0.03228,0.10938 0.06223,0.219431 0.08984,0.330079 0.02848,0.112705 0.05453,0.226013 0.07813,0.339843 0.0226,0.112837 0.04279,0.226144 0.06055,0.339844 0.01874,0.11422 0.03502,0.22883 0.04883,0.34375 0.01349,0.113684 0.02456,0.227642 0.0332,0.341797 0.0076,0.114459 0.01286,0.229069 0.01563,0.34375 0.0032,0.08069 0.0051,0.161433 0.0059,0.242187 -8.42e-4,0.113988 -0.0041,0.227946 -0.0098,0.341797 -0.004,0.116012 -0.01052,0.231925 -0.01953,0.347656 -0.0099,0.114835 -0.02229,0.229445 -0.03711,0.34375 -0.01516,0.113643 -0.03275,0.22695 -0.05273,0.339844 -0.01973,0.11309 -0.04187,0.225746 -0.06641,0.337891 -0.02424,0.113845 -0.05094,0.227153 -0.08008,0.339844 -0.02953,0.111347 -0.06144,0.222049 -0.0957,0.332031 -0.03414,0.109488 -0.07061,0.218237 -0.109375,0.326172 -0.03872,0.108286 -0.07974,0.215732 -0.123047,0.322265 -0.04262,0.107725 -0.08755,0.214521 -0.134765,0.320313 -0.04791,0.104575 -0.09805,0.208114 -0.150391,0.310547 -0.05248,0.103379 -0.10718,0.205616 -0.164062,0.30664 -0.05652,0.09888 -0.115128,0.196563 -0.175782,0.292969 -0.06041,0.09833 -0.122928,0.195362 -0.1875,0.291016 -0.06504,0.09517 -0.132114,0.188947 -0.201171,0.28125 -0.06898,0.09332 -0.139957,0.185134 -0.212891,0.27539 -0.073,0.08883 -0.147885,0.176088 -0.224609,0.261719 -0.07697,0.08566 -0.155765,0.169663 -0.236329,0.251953 -0.08029,0.08247 -0.162345,0.163222 -0.246093,0.242188 -0.08426,0.07931 -0.17022,0.156804 -0.257813,0.232422 -0.08696,0.07545 -0.17552,0.149037 -0.265625,0.220703 -0.08965,0.0716 -0.180817,0.141273 -0.273437,0.208984 -0.09232,0.0684 -0.186093,0.134821 -0.28125,0.199219 -0.09696,0.06396 -0.195292,0.125826 -0.294922,0.185547 -0.09839,0.05875 -0.198024,0.115408 -0.298828,0.169922 -0.101058,0.05557 -0.203295,0.108967 -0.306641,0.160156 -0.103757,0.05107 -0.208598,0.09991 -0.314453,0.146484 -0.105178,0.04588 -0.211322,0.08951 -0.318359,0.13086 -0.106534,0.04331 -0.21398,0.08433 -0.322266,0.123047 -0.109921,0.03688 -0.220624,0.0714 -0.332031,0.103515 -0.109379,0.03227 -0.21943,0.06223 -0.330078,0.08984 -0.112721,0.02783 -0.226028,0.05323 -0.339844,0.07617 -0.112823,0.02325 -0.22613,0.04409 -0.339844,0.0625 -0.11422,0.01874 -0.22883,0.03502 -0.34375,0.04883 -0.113684,0.01349 -0.227642,0.02456 -0.341797,0.0332 -0.11576,0.0077 -0.231672,0.01291 -0.347656,0.01563 -0.0807,0.0025 -0.161443,0.0038 -0.242187,0.0039 -0.115928,-1.08e-4 -0.231841,-0.0027 -0.347657,-0.0078 -0.114751,-0.006 -0.22936,-0.01448 -0.34375,-0.02539 -0.114183,-0.0099 -0.228141,-0.02231 -0.341797,-0.03711 -0.08351,-0.01042 -0.166855,-0.02214 -0.25,-0.03516 -0.118745,0.0065 -0.231119,0.03516 -0.351562,0.03516 h -4.230469 c -0.03671,6.546628 0.0918,11.646509 0.0918,17.855469 0,1.146005 0.922353,2.068359 2.068359,2.068359 5.861967,0.06819 12.247499,-0.08208 17.794922,-0.07422 V 63.65625 c 0,-0.250608 0.04624,-0.489555 0.07422,-0.732422 -0.01352,-0.114334 -0.02459,-0.228943 -0.0332,-0.34375 -0.0077,-0.11576 -0.01291,-0.231672 -0.01563,-0.347656 -0.0022,-0.07029 -0.0035,-0.140611 -0.0039,-0.210938 1.64e-4,-0.114626 0.0028,-0.229235 0.0078,-0.34375 0.004,-0.116012 0.01052,-0.231925 0.01953,-0.347656 0.0099,-0.114835 0.02229,-0.229445 0.03711,-0.34375 0.01516,-0.113643 0.03275,-0.22695 0.05273,-0.339844 0.01968,-0.114396 0.04182,-0.228355 0.06641,-0.341796 0.02494,-0.112552 0.05229,-0.224557 0.08203,-0.335938 0.02888,-0.111332 0.06014,-0.222034 0.09375,-0.332031 0.03284,-0.109458 0.06801,-0.218207 0.105468,-0.326172 0.03872,-0.108286 0.07974,-0.215732 0.123047,-0.322266 0.04391,-0.107757 0.09015,-0.214553 0.138672,-0.320312 0.04856,-0.104592 0.09935,-0.208131 0.152344,-0.310547 0.05184,-0.103363 0.105883,-0.2056 0.162109,-0.306641 0.05652,-0.09889 0.115128,-0.196563 0.175781,-0.292969 0.06106,-0.09835 0.124224,-0.195379 0.189454,-0.291015 0.0644,-0.09516 0.130819,-0.188928 0.199218,-0.28125 0.069,-0.09266 0.139979,-0.183825 0.212891,-0.273438 0.073,-0.08883 0.147885,-0.176088 0.224609,-0.261718 0.07695,-0.08632 0.155743,-0.170973 0.236328,-0.253907 0.0803,-0.08247 0.162346,-0.163221 0.246094,-0.242187 0.08297,-0.07927 0.167629,-0.156761 0.253906,-0.232422 0.08696,-0.07545 0.175521,-0.149037 0.265626,-0.220703 0.0909,-0.07296 0.18337,-0.143937 0.277343,-0.212891 0.09236,-0.06708 0.18613,-0.132203 0.28125,-0.195312 0.09698,-0.06331 0.195309,-0.124518 0.294922,-0.183594 0.09837,-0.05941 0.198007,-0.116716 0.298828,-0.171875 0.101058,-0.05557 0.203295,-0.108967 0.306641,-0.160156 0.102466,-0.05102 0.206005,-0.09986 0.310547,-0.146485 0.10647,-0.04593 0.213916,-0.08956 0.322265,-0.130859 0.10718,-0.04333 0.215278,-0.08436 0.324219,-0.123047 0.109289,-0.0362 0.219341,-0.07006 0.330078,-0.101562 0.110027,-0.0323 0.220729,-0.06226 0.332031,-0.08984 0.112058,-0.02846 0.224714,-0.0545 0.337891,-0.07813 0.112823,-0.02325 0.22613,-0.04409 0.339844,-0.0625 0.11422,-0.01874 0.22883,-0.03502 0.34375,-0.04883 0.114348,-0.01286 0.228957,-0.02328 0.34375,-0.03125 0.113795,-0.0083 0.227753,-0.01413 0.341797,-0.01758 0.08071,-0.0025 0.161443,-0.0038 0.242187,-0.0039 0.114626,1.64e-4 0.229235,0.0028 0.34375,0.0078 0.116027,0.0047 0.231939,0.01182 0.347657,0.02148 0.114182,0.0099 0.22814,0.02232 0.341796,0.03711 0.113643,0.01516 0.22695,0.03274 0.339844,0.05273 0.113729,0.01906 0.227036,0.04055 0.339844,0.06445 0.11386,0.02489 0.227168,0.05224 0.339844,0.08203 0.110678,0.02891 0.220728,0.06017 0.330078,0.09375 0.110159,0.03476 0.219559,0.07188 0.328125,0.111328 0.108286,0.03872 0.215732,0.07974 0.322265,0.123047 0.10707,0.04265 0.213214,0.08758 0.31836,0.134766 0.104575,0.04791 0.208114,0.09805 0.310547,0.150391 0.103379,0.05248 0.205616,0.10718 0.30664,0.164062 0.09954,0.0565 0.197872,0.115104 0.294922,0.175781 0.09768,0.06044 0.194053,0.122951 0.289063,0.1875 0.09583,0.06502 0.190255,0.132092 0.283203,0.201172 0.09264,0.06835 0.183805,0.138684 0.273437,0.210938 0.08883,0.073 0.176088,0.147885 0.261719,0.224609 0.08634,0.07759 0.170993,0.157038 0.253906,0.238281 0.08179,0.07967 0.161892,0.161071 0.240235,0.244141 0.07931,0.08426 0.156804,0.170219 0.232422,0.257812 0.07545,0.08696 0.149037,0.175521 0.220703,0.265626 0.07162,0.0903 0.141296,0.182112 0.208984,0.27539 0.06906,0.0923 0.13613,0.186075 0.201172,0.28125 0.06331,0.09698 0.124518,0.195309 0.183594,0.294922 0.05939,0.09773 0.116692,0.196711 0.171875,0.296875 0.05491,0.101075 0.107659,0.203312 0.158203,0.306641 0.05176,0.104385 0.101246,0.209879 0.148437,0.316406 0.04588,0.105178 0.08951,0.211322 0.13086,0.318359 0.04331,0.106534 0.08433,0.21398 0.123046,0.322266 0.03623,0.109936 0.07009,0.220639 0.101563,0.332031 0.03227,0.109379 0.06223,0.21943 0.08984,0.330078 0.02849,0.112706 0.05453,0.226014 0.07813,0.339844 0.0226,0.112837 0.04279,0.226144 0.06055,0.339844 0.01871,0.113571 0.03499,0.22753 0.04883,0.341797 0.01352,0.114334 0.02459,0.228943 0.0332,0.34375 0.0077,0.11576 0.01291,0.231672 0.01563,0.347656 0.0038,0.08069 0.0064,0.161423 0.0078,0.242187 -1.36e-4,0.115277 -0.0027,0.230538 -0.0078,0.345704 -0.0054,0.114737 -0.01318,0.229346 -0.02344,0.34375 -0.0099,0.114835 -0.02229,0.229445 -0.03711,0.34375 -0.01107,0.08352 -0.02344,0.166865 -0.03711,0.25 0.0066,0.118747 0.03711,0.231119 0.03711,0.351562 v 4.736328 c 6.249351,0.03135 11.111545,-0.07617 17.097656,-0.07617 1.146006,0 2.06836,-0.922354 2.06836,-2.068359 V 49.205078 h 1.765625 c 0.120451,0 0.232815,-0.02866 0.351562,-0.03516 0.08315,0.01302 0.166489,0.02474 0.25,0.03516 0.114305,0.01482 0.228915,0.02719 0.34375,0.03711 0.11439,0.01091 0.228999,0.01937 0.34375,0.02539 0.115165,0.0051 0.230426,0.0077 0.345703,0.0078 0.08074,-9.1e-5 0.161483,-0.0014 0.242188,-0.0039 0.115984,-0.0027 0.231896,-0.0079 0.347656,-0.01563 0.114807,-0.0086 0.229416,-0.01969 0.34375,-0.0332 0.114267,-0.01384 0.228226,-0.03012 0.341797,-0.04883 0.113714,-0.01841 0.227021,-0.03925 0.339844,-0.0625 0.113815,-0.02294 0.227123,-0.04834 0.339843,-0.07617 0.110663,-0.02826 0.220714,-0.05887 0.330078,-0.0918 0.111392,-0.03147 0.222095,-0.06533 0.332032,-0.101562 0.108286,-0.03872 0.215732,-0.07974 0.322265,-0.123047 0.107038,-0.04135 0.213182,-0.08498 0.31836,-0.130859 0.106511,-0.04655 0.212004,-0.09539 0.316406,-0.146485 0.103346,-0.05119 0.205583,-0.104587 0.306641,-0.160156 0.100147,-0.05454 0.199128,-0.111191 0.296875,-0.169922 0.09963,-0.05972 0.19796,-0.121584 0.294921,-0.185547 0.09516,-0.0644 0.188928,-0.130819 0.28125,-0.199219 0.09328,-0.06769 0.185096,-0.137365 0.275391,-0.208984 0.0901,-0.07167 0.178667,-0.14525 0.265625,-0.220703 0.08693,-0.07564 0.172242,-0.153131 0.25586,-0.232422 0.08375,-0.07897 0.165798,-0.159713 0.246093,-0.242187 0.08056,-0.08229 0.159358,-0.166294 0.236328,-0.251954 0.07738,-0.08561 0.152921,-0.17287 0.226563,-0.261718 0.07228,-0.09028 0.142605,-0.182094 0.210937,-0.275391 0.06906,-0.0923 0.13613,-0.186075 0.201172,-0.28125 0.06457,-0.09565 0.127087,-0.192681 0.1875,-0.291015 0.06065,-0.09641 0.11926,-0.194084 0.175781,-0.292969 0.05688,-0.101024 0.111583,-0.203261 0.164063,-0.306641 0.05234,-0.102433 0.102478,-0.205972 0.150391,-0.310547 0.04721,-0.105792 0.09215,-0.212587 0.134765,-0.320312 0.04331,-0.106534 0.08433,-0.21398 0.123047,-0.322266 0.03943,-0.10792 0.07654,-0.216668 0.111328,-0.326172 0.03361,-0.109997 0.06487,-0.220699 0.09375,-0.332031 0.02979,-0.112676 0.05714,-0.225984 0.08203,-0.339844 0.02388,-0.11216 0.04537,-0.224815 0.06445,-0.33789 0.01999,-0.112894 0.03757,-0.226201 0.05273,-0.339844 0.01482,-0.114305 0.02719,-0.228915 0.03711,-0.34375 0.0097,-0.115717 0.01682,-0.23163 0.02148,-0.347656 0.005,-0.113864 0.0076,-0.227822 0.0078,-0.341797 -9.1e-5,-0.08074 -0.0014,-0.161483 -0.0039,-0.242188 -0.0034,-0.114695 -0.0093,-0.229305 -0.01758,-0.34375 -0.008,-0.114141 -0.01841,-0.228099 -0.03125,-0.341797 -0.01381,-0.11492 -0.03009,-0.22953 -0.04883,-0.34375 -0.01841,-0.113714 -0.03924,-0.227021 -0.0625,-0.339843 -0.02359,-0.11383 -0.04964,-0.227138 -0.07813,-0.339844 -0.02761,-0.110648 -0.05757,-0.220699 -0.08984,-0.330078 -0.03147,-0.111392 -0.06533,-0.222095 -0.101562,-0.332031 -0.03872,-0.108286 -0.07974,-0.215732 -0.123047,-0.322266 -0.0413,-0.108349 -0.08493,-0.215796 -0.13086,-0.322266 -0.04662,-0.104542 -0.09546,-0.208081 -0.146484,-0.310547 -0.05119,-0.103345 -0.104587,-0.205582 -0.160156,-0.30664 -0.05516,-0.100821 -0.112463,-0.200453 -0.171875,-0.298828 -0.05908,-0.09961 -0.120288,-0.197943 -0.183594,-0.294922 -0.06311,-0.09512 -0.128228,-0.188891 -0.195313,-0.28125 -0.06893,-0.09463 -0.13991,-0.187752 -0.21289,-0.279297 -0.07167,-0.09011 -0.14525,-0.178667 -0.220703,-0.265625 -0.07568,-0.08562 -0.153174,-0.169623 -0.232422,-0.251953 -0.07897,-0.08375 -0.159714,-0.165798 -0.242188,-0.246094 -0.08293,-0.08058 -0.167588,-0.159379 -0.253906,-0.236328 -0.08563,-0.07672 -0.17289,-0.151612 -0.261719,-0.22461 -0.08961,-0.07291 -0.180779,-0.143891 -0.273437,-0.21289 -0.0923,-0.06906 -0.186075,-0.13613 -0.28125,-0.201172 -0.09565,-0.06457 -0.192682,-0.127087 -0.291016,-0.1875 -0.09641,-0.06065 -0.194084,-0.11926 -0.292969,-0.175781 -0.101024,-0.05688 -0.203261,-0.111583 -0.30664,-0.164063 -0.102433,-0.05234 -0.205972,-0.102478 -0.310547,-0.15039 -0.105759,-0.04853 -0.212555,-0.09476 -0.320313,-0.138672 -0.106533,-0.04331 -0.213979,-0.08433 -0.322265,-0.123047 -0.10795,-0.03811 -0.216699,-0.07393 -0.326172,-0.107422 -0.109997,-0.03361 -0.220699,-0.06487 -0.332031,-0.09375 -0.111381,-0.02974 -0.223386,-0.05709 -0.335938,-0.08203 -0.113456,-0.02394 -0.227415,-0.04543 -0.341797,-0.06445 -0.112894,-0.01999 -0.226201,-0.03757 -0.339844,-0.05273 -0.114305,-0.01482 -0.228915,-0.02719 -0.34375,-0.03711 -0.115717,-0.0097 -0.23163,-0.01682 -0.347656,-0.02148 -0.114515,-0.005 -0.229124,-0.0076 -0.34375,-0.0078 -0.07033,3.83e-4 -0.140645,0.0017 -0.210937,0.0039 -0.115999,0.0034 -0.231911,0.0092 -0.347657,0.01758 -0.114793,0.008 -0.229402,0.01839 -0.34375,0.03125 -0.242865,-0.02799 -0.481813,-0.07227 -0.732421,-0.07227 H 66.291016 V 15.1875 c 0,-1.146006 -0.922354,-2.068359 -2.06836,-2.068359 H 45.796875 v -2.564453 c 0,-0.120452 -0.03061,-0.232816 -0.03711,-0.351563 0.01367,-0.08314 0.02604,-0.166478 0.03711,-0.25 0.01482,-0.1143054 0.02719,-0.2289149 0.03711,-0.34375 0.01026,-0.1144036 0.01807,-0.229013 0.02344,-0.34375 0.0051,-0.1158159 0.0077,-0.2317282 0.0078,-0.3476562 -1.11e-4,-0.080093 -0.0014,-0.1601801 -0.0039,-0.2402344 -0.0027,-0.1159842 -0.0079,-0.2318966 -0.01563,-0.3476563 -0.0086,-0.1148069 -0.01969,-0.2294165 -0.0332,-0.34375 C 45.798662,7.8720608 45.782382,7.7581025 45.763672,7.6445312 45.745914,7.5308315 45.725727,7.4175244 45.703125,7.3046875 45.679533,7.1908571 45.653485,7.0775495 45.625,6.9648438 45.597386,6.8541956 45.567431,6.7441449 45.535156,6.6347656 45.503039,6.5233582 45.468526,6.4126555 45.431641,6.3027344 45.393571,6.1944642 45.353197,6.0870179 45.310547,5.9804688 45.269194,5.8734313 45.225565,5.7672874 45.179688,5.6621094 45.132497,5.5555821 45.083006,5.4500886 45.03125,5.3457031 44.980706,5.2423744 44.927959,5.1401375 44.873047,5.0390625 44.817864,4.9388983 44.760559,4.8399176 44.701172,4.7421875 44.642096,4.642575 44.580884,4.5442449 44.517578,4.4472656 44.452536,4.3520904 44.385463,4.2583189 44.316406,4.1660156 44.248718,4.0727379 44.179041,3.98092 44.107422,3.890625 44.035756,3.8005201 43.962172,3.7119582 43.886719,3.625 43.811101,3.5374071 43.733609,3.4514497 43.654297,3.3671875 43.575954,3.2841179 43.495857,3.2027194 43.414062,3.1230469 43.331149,3.041804 43.246494,2.9623584 43.160156,2.8847656 43.074526,2.8080411 42.987266,2.7331542 42.898438,2.6601562 42.808806,2.5879025 42.717639,2.5175739 42.625,2.4492188 42.532052,2.3801385 42.43763,2.3130656 42.341797,2.2480469 42.246787,2.1834981 42.150411,2.1209839 42.052734,2.0605469 41.955684,1.9998696 41.857354,1.9412626 41.757812,1.8847656 41.656788,1.8278831 41.554551,1.7731829 41.451172,1.7207031 41.348739,1.6683667 41.2452,1.6182251 41.140625,1.5703125 41.035479,1.5231239 40.929335,1.4781917 40.822266,1.4355469 40.715086,1.3922151 40.606988,1.35119 40.498047,1.3125 40.390127,1.2730743 40.281379,1.2359565 40.171875,1.2011719 40.061878,1.1675608 39.951176,1.1363036 39.839844,1.1074219 39.727816,1.0776561 39.615159,1.050306 39.501953,1.0253906 39.389145,1.0014821 39.275838,0.97999282 39.162109,0.9609375 39.049215,0.9409488 38.935909,0.9233666 38.822266,0.9082031 38.707961,0.8933813 38.593351,0.8810087 38.478516,0.8710937 38.363448,0.8614617 38.248187,0.8542982 38.132812,0.8496093 38.018297,0.8445653 37.903688,0.8419613 37.789062,0.8417963 Z"
       sodipodi:nodetypes="sccccccccccccccccccccccccccccccccccccccccscsccsccccccccccccccccccccccccccccccccccccccccccccccccccccccccccccccccccccccccccccccccccsccccsccccccccccccccccccccccccccccccccccccccccccccccccccccccccccccccccccccccccccccccccccsccscsccccccccccccccccccccccccccccccccccccccccccccccccccccccccccccccccccccccccccccccccccscsscscccccccccccccccccccccccccccccccccccccccccss" />
  </g>
</svg>
