<?xml version="1.0" encoding="UTF-8" standalone="no"?>
<svg
   xmlns:dc="http://purl.org/dc/elements/1.1/"
   xmlns:cc="http://creativecommons.org/ns#"
   xmlns:rdf="http://www.w3.org/1999/02/22-rdf-syntax-ns#"
   xmlns:svg="http://www.w3.org/2000/svg"
   xmlns="http://www.w3.org/2000/svg"
   xmlns:sodipodi="http://sodipodi.sourceforge.net/DTD/sodipodi-0.dtd"
   xmlns:inkscape="http://www.inkscape.org/namespaces/inkscape"
   width="1024"
   height="1024"
   viewBox="0 0 270.93333 270.93334"
   version="1.1"
   id="svg8"
   inkscape:version="1.0.2 (e86c870879, 2021-01-15)"
   sodipodi:docname="logo_t.svg">
  <defs
     id="defs2">
    <marker
       inkscape:stockid="DistanceStart"
       orient="auto"
       refY="0.0"
       refX="0.0"
       id="DistanceStart"
       style="overflow:visible"
       inkscape:isstock="true">
      <g
         id="g2300"
         style="stroke:#007ef4;stroke-opacity:0.989116;fill:#007ef4;fill-opacity:0.989116">
        <path
           id="path2306"
           d="M 0,0 L 2,0"
           style="fill:#007ef4;stroke:#007ef4;stroke-width:1.15;stroke-linecap:square;stroke-opacity:0.989116;fill-opacity:0.989116" />
        <path
           id="path2302"
           d="M 0,0 L 13,4 L 9,0 13,-4 L 0,0 z "
           style="fill:#007ef4;fill-rule:evenodd;stroke:#007ef4;stroke-opacity:0.989116;fill-opacity:0.989116" />
        <path
           id="path2304"
           d="M 0,-4 L 0,40"
           style="fill:#007ef4;stroke:#007ef4;stroke-width:1;stroke-linecap:square;stroke-opacity:0.989116;fill-opacity:0.989116" />
      </g>
    </marker>
    <marker
       style="overflow:visible"
       id="Arrow1Lstart"
       refX="0.0"
       refY="0.0"
       orient="auto"
       inkscape:stockid="Arrow1Lstart"
       inkscape:isstock="true">
      <path
         transform="scale(0.8) translate(12.5,0)"
         style="fill-rule:evenodd;stroke:#007ef4;stroke-width:1pt;stroke-opacity:0.989116;fill:#007ef4;fill-opacity:0.989116"
         d="M 0.0,0.0 L 5.0,-5.0 L -12.5,0.0 L 5.0,5.0 L 0.0,0.0 z "
         id="path1175" />
    </marker>
    <filter
       inkscape:collect="always"
       style="color-interpolation-filters:sRGB"
       id="filter977"
       x="-0.00027482261"
       width="1.0005496"
       y="-0.00023135487"
       height="1.0004627">
      <feGaussianBlur
         inkscape:collect="always"
         stdDeviation="0.00077163151"
         id="feGaussianBlur979" />
    </filter>
    <filter
       inkscape:collect="always"
       style="color-interpolation-filters:sRGB"
       id="filter1167"
       x="-0.00022692791"
       width="1.0004539"
       y="-0.00022403821"
       height="1.0004481">
      <feGaussianBlur
         inkscape:collect="always"
         stdDeviation="0.0028136709"
         id="feGaussianBlur1169" />
    </filter>
  </defs>
  <sodipodi:namedview
     id="base"
     pagecolor="#ffffff"
     bordercolor="#666666"
     borderopacity="1.0"
     inkscape:pageopacity="0.0"
     inkscape:pageshadow="2"
     inkscape:zoom="0.35"
     inkscape:cx="149.45263"
     inkscape:cy="593.47367"
     inkscape:document-units="mm"
     inkscape:current-layer="text835"
     inkscape:document-rotation="0"
     showgrid="false"
     units="px"
     inkscape:window-width="1920"
     inkscape:window-height="948"
     inkscape:window-x="0"
     inkscape:window-y="27"
     inkscape:window-maximized="1" />
  <metadata
     id="metadata5">
    <rdf:RDF>
      <cc:Work
         rdf:about="">
        <dc:format>image/svg+xml</dc:format>
        <dc:type
           rdf:resource="http://purl.org/dc/dcmitype/StillImage" />
        <dc:title></dc:title>
      </cc:Work>
    </rdf:RDF>
  </metadata>
  <g
     inkscape:label="Layer 1"
     inkscape:groupmode="layer"
     id="layer1">
    <g
       aria-label="G"
       id="text835"
       style="font-style:normal;font-variant:normal;font-weight:bold;font-stretch:normal;font-size:50.8px;line-height:1.25;font-family:'Nimbus Roman';-inkscape-font-specification:'Nimbus Roman, Bold';fill:#fff380;fill-opacity:1;stroke:none;stroke-width:0.264583;filter:url(#filter977)">
      <rect
         style="opacity:0.988255;fill:#191919;fill-opacity:0.02723273;stroke-width:0.116605"
         id="rect1171"
         width="271.34253"
         height="270.89264"
         x="-0.89690852"
         y="0.43126833" />
      <ellipse
         style="opacity:1;fill:none;fill-opacity:1;stroke:#f44d00;stroke-width:15.4088;stroke-linecap:round;stroke-linejoin:round;stroke-miterlimit:3.3;stroke-dasharray:none;stroke-dashoffset:0;stroke-opacity:1;paint-order:normal"
         id="path1589"
         cx="18.755608"
         cy="188.04161"
         rx="142.04955"
         ry="81.887489"
         transform="matrix(0.79421828,-0.60763256,0.64540814,0.7638379,0,0)" />
      <path
         d="m 84.016653,76.069021 q -0.135467,-0.4064 -0.541867,-0.677333 -0.4064,-0.270934 -0.880533,-0.338667 -0.474134,-0.135467 -0.948267,-0.135467 -0.4064,-0.06773 -0.6096,-0.06773 -0.135467,0 -0.2032,-0.745067 0,-0.745066 0.2032,-0.948266 1.693333,0.135466 3.386667,0.2032 1.693333,0.06773 3.386666,0.06773 1.4224,0 2.777067,-0.06773 1.4224,-0.06773 2.777067,-0.2032 0.135466,0.474133 0.06773,1.083733 0,0.6096 -0.135467,0.6096 -0.270933,0 -1.151466,0.2032 -0.880534,0.135467 -1.2192,0.338667 -0.2032,0.135466 -0.4064,0.745066 -0.135467,0.541867 -0.135467,1.2192 v 4.741334 q 0,0.338666 0.135467,0.745066 0.135466,0.4064 0.135466,0.541867 0,0.4064 -0.541866,0.745067 -0.541867,0.270933 -1.016,0.474133 -2.167467,0.745067 -4.538134,1.490133 -2.370666,0.745067 -5.4864,0.745067 -3.183466,0 -6.028266,-1.083733 -2.777067,-1.151467 -4.8768,-3.115734 -2.032,-1.964266 -3.2512,-4.6736 -1.2192,-2.709333 -1.2192,-5.8928 0,-3.115733 1.2192,-5.892799 1.2192,-2.8448 3.318933,-4.944534 2.099734,-2.099733 4.8768,-3.318933 2.8448,-1.2192 6.028267,-1.2192 2.2352,0 4.809066,0.2032 2.573867,0.2032 4.538134,0.6096 0,0.2032 0.2032,1.2192 0.270933,1.016 0.541866,2.167467 0.270934,1.151466 0.474134,2.167466 0.270933,1.016 0.270933,1.2192 0,0.2032 -0.4064,0.474134 -0.338667,0.2032 -0.745067,0.2032 -0.474133,0 -0.6096,-0.2032 -0.2032,-0.6096 -0.677333,-1.6256 -0.474133,-1.083734 -1.4224,-2.099734 -0.948267,-1.016 -2.506133,-1.693333 -1.557867,-0.745067 -3.928534,-0.745067 -2.506133,0 -4.199466,1.083734 -1.693334,1.016 -2.709334,2.777066 -1.015999,1.761067 -1.490133,3.996267 -0.4064,2.2352 -0.4064,4.538133 0,2.6416 0.6096,5.147733 0.6096,2.4384 1.761067,4.402667 1.2192,1.964267 2.980266,3.183467 1.761067,1.151466 4.131734,1.151466 1.286933,0 2.032,-0.2032 0.8128,-0.2032 1.4224,-0.474133 0.135466,-0.135467 0.270933,-0.2032 0.135467,-0.135467 0.135467,-0.474133 v -5.215467 q 0,-0.677333 0,-1.083733 0,-0.4064 -0.2032,-1.151467 z"
         style="font-style:normal;font-variant:normal;font-weight:bold;font-stretch:normal;font-size:50.8px;font-family:Ramaraja;-inkscape-font-specification:'Ramaraja Bold';opacity:1;fill:#fecc00;fill-opacity:1;stroke-width:0.264583;filter:url(#filter1167)"
         id="path981"
         transform="matrix(6.3501548,0,0,6.3501548,-356.60875,-310.80207)" />
    </g>
  </g>
</svg>
